<svg width="25" height="25" viewBox="0 0 25 25" fill="none" xmlns="http://www.w3.org/2000/svg">
<path fill-rule="evenodd" clip-rule="evenodd" d="M3.18934 8.43934C3.47064 8.15804 3.85217 8 4.25 8H20.75C21.1478 8 21.5294 8.15804 21.8107 8.43934C22.092 8.72065 22.25 9.10218 22.25 9.5V19.6836C22.25 21.5371 20.6846 23 18.875 23H6.125C4.29329 23 2.75 21.4567 2.75 19.625V9.5C2.75 9.10217 2.90804 8.72064 3.18934 8.43934ZM20.75 9.5L4.25 9.5L4.25 19.625C4.25 20.6283 5.12171 21.5 6.125 21.5H18.875C19.9004 21.5 20.75 20.6651 20.75 19.6836V9.5Z" fill="#21272A"/>
<path fill-rule="evenodd" clip-rule="evenodd" d="M12.5 3.5C11.5054 3.5 10.5516 3.89509 9.84835 4.59835C9.14509 5.30161 8.75 6.25544 8.75 7.25V8.75C8.75 9.16421 8.41421 9.5 8 9.5C7.58579 9.5 7.25 9.16421 7.25 8.75V7.25C7.25 5.85761 7.80312 4.52226 8.78769 3.53769C9.77226 2.55312 11.1076 2 12.5 2C13.8924 2 15.2277 2.55312 16.2123 3.53769C17.1969 4.52226 17.75 5.85761 17.75 7.25V8.75C17.75 9.16421 17.4142 9.5 17 9.5C16.5858 9.5 16.25 9.16421 16.25 8.75V7.25C16.25 6.25544 15.8549 5.30161 15.1517 4.59835C14.4484 3.89509 13.4946 3.5 12.5 3.5Z" fill="#21272A"/>
<path fill-rule="evenodd" clip-rule="evenodd" d="M8 10.25C8.41421 10.25 8.75 10.5858 8.75 11V11.75C8.75 12.7446 9.14509 13.6984 9.84835 14.4017C10.5516 15.1049 11.5054 15.5 12.5 15.5C13.4946 15.5 14.4484 15.1049 15.1517 14.4017C15.8549 13.6984 16.25 12.7446 16.25 11.75V11C16.25 10.5858 16.5858 10.25 17 10.25C17.4142 10.25 17.75 10.5858 17.75 11V11.75C17.75 13.1424 17.1969 14.4777 16.2123 15.4623C15.2277 16.4469 13.8924 17 12.5 17C11.1076 17 9.77226 16.4469 8.78769 15.4623C7.80312 14.4777 7.25 13.1424 7.25 11.75V11C7.25 10.5858 7.58579 10.25 8 10.25Z" fill="#21272A"/>
</svg>
